<mxfile host="app.diagrams.net" agent="Mozilla/5.0 (Windows NT 10.0; Win64; x64) AppleWebKit/537.36 (KHTML, like Gecko) Chrome/130.0.0.0 Safari/537.36" version="25.0.3">
  <diagram name="Trang-1" id="Hi0e2cC02XOkc00t8fqz">
    <mxGraphModel grid="0" page="0" gridSize="10" guides="1" tooltips="1" connect="1" arrows="1" fold="1" pageScale="1" pageWidth="827" pageHeight="1169" math="0" shadow="0">
      <root>
        <mxCell id="0" />
        <mxCell id="1" parent="0" />
        <mxCell id="SrwTvZ2_IQ-V_5wnVjmZ-1" value="Customer" style="shape=umlActor;verticalLabelPosition=bottom;verticalAlign=top;html=1;" vertex="1" parent="1">
          <mxGeometry x="-517" y="62" width="30" height="60" as="geometry" />
        </mxCell>
        <mxCell id="SrwTvZ2_IQ-V_5wnVjmZ-2" value="&lt;font style=&quot;font-size: 18px;&quot;&gt;Koi Fram Shop&lt;/font&gt;" style="swimlane;whiteSpace=wrap;html=1;startSize=59;" vertex="1" parent="1">
          <mxGeometry x="-318" y="-155" width="1022" height="827" as="geometry" />
        </mxCell>
        <mxCell id="SrwTvZ2_IQ-V_5wnVjmZ-4" value="Đăng nhập" style="ellipse;whiteSpace=wrap;html=1;" vertex="1" parent="SrwTvZ2_IQ-V_5wnVjmZ-2">
          <mxGeometry x="53.5" y="205" width="140" height="93" as="geometry" />
        </mxCell>
        <mxCell id="SrwTvZ2_IQ-V_5wnVjmZ-5" value="Đổi mật khẩu" style="ellipse;whiteSpace=wrap;html=1;" vertex="1" parent="SrwTvZ2_IQ-V_5wnVjmZ-2">
          <mxGeometry x="52" y="589" width="143" height="80" as="geometry" />
        </mxCell>
        <mxCell id="SrwTvZ2_IQ-V_5wnVjmZ-6" value="Tìm kiếm cá koi" style="ellipse;whiteSpace=wrap;html=1;" vertex="1" parent="SrwTvZ2_IQ-V_5wnVjmZ-2">
          <mxGeometry x="412" y="100" width="120" height="80" as="geometry" />
        </mxCell>
        <mxCell id="SrwTvZ2_IQ-V_5wnVjmZ-7" value="tìm kiếm: theo giống, kích cỡ." style="ellipse;whiteSpace=wrap;html=1;" vertex="1" parent="SrwTvZ2_IQ-V_5wnVjmZ-2">
          <mxGeometry x="675" y="65" width="120" height="80" as="geometry" />
        </mxCell>
        <mxCell id="SrwTvZ2_IQ-V_5wnVjmZ-8" value="Tìm kiếm: theo màu sắc, giá cả." style="ellipse;whiteSpace=wrap;html=1;" vertex="1" parent="SrwTvZ2_IQ-V_5wnVjmZ-2">
          <mxGeometry x="675" y="159" width="120" height="80" as="geometry" />
        </mxCell>
        <mxCell id="SrwTvZ2_IQ-V_5wnVjmZ-11" value="Chọn số lượng" style="ellipse;whiteSpace=wrap;html=1;" vertex="1" parent="SrwTvZ2_IQ-V_5wnVjmZ-2">
          <mxGeometry x="675" y="253" width="120" height="80" as="geometry" />
        </mxCell>
        <mxCell id="SrwTvZ2_IQ-V_5wnVjmZ-13" value="Giỏ hàng" style="ellipse;whiteSpace=wrap;html=1;" vertex="1" parent="SrwTvZ2_IQ-V_5wnVjmZ-2">
          <mxGeometry x="427" y="253" width="120" height="80" as="geometry" />
        </mxCell>
        <mxCell id="SrwTvZ2_IQ-V_5wnVjmZ-14" value="Thêm vào giỏ hàng" style="ellipse;whiteSpace=wrap;html=1;" vertex="1" parent="SrwTvZ2_IQ-V_5wnVjmZ-2">
          <mxGeometry x="675" y="341" width="120" height="80" as="geometry" />
        </mxCell>
        <mxCell id="SrwTvZ2_IQ-V_5wnVjmZ-15" value="Thanh toán" style="ellipse;whiteSpace=wrap;html=1;" vertex="1" parent="SrwTvZ2_IQ-V_5wnVjmZ-2">
          <mxGeometry x="400" y="416" width="120" height="80" as="geometry" />
        </mxCell>
        <mxCell id="SrwTvZ2_IQ-V_5wnVjmZ-16" value="Chọn hình thức thanh toán" style="ellipse;whiteSpace=wrap;html=1;" vertex="1" parent="SrwTvZ2_IQ-V_5wnVjmZ-2">
          <mxGeometry x="675" y="429" width="120" height="80" as="geometry" />
        </mxCell>
        <mxCell id="SrwTvZ2_IQ-V_5wnVjmZ-19" value="Quản lý phản hồi và đánh giá, theo dõi đơn hàng" style="ellipse;whiteSpace=wrap;html=1;" vertex="1" parent="SrwTvZ2_IQ-V_5wnVjmZ-2">
          <mxGeometry x="364" y="647" width="120" height="80" as="geometry" />
        </mxCell>
        <mxCell id="SrwTvZ2_IQ-V_5wnVjmZ-20" value="Gửi phản hồi" style="ellipse;whiteSpace=wrap;html=1;" vertex="1" parent="SrwTvZ2_IQ-V_5wnVjmZ-2">
          <mxGeometry x="675" y="536" width="120" height="80" as="geometry" />
        </mxCell>
        <mxCell id="SrwTvZ2_IQ-V_5wnVjmZ-22" value="Xem đánh giá" style="ellipse;whiteSpace=wrap;html=1;" vertex="1" parent="SrwTvZ2_IQ-V_5wnVjmZ-2">
          <mxGeometry x="675" y="633" width="120" height="80" as="geometry" />
        </mxCell>
        <mxCell id="SrwTvZ2_IQ-V_5wnVjmZ-21" value="theo dõi đơn hàng" style="ellipse;whiteSpace=wrap;html=1;" vertex="1" parent="SrwTvZ2_IQ-V_5wnVjmZ-2">
          <mxGeometry x="675" y="730" width="120" height="80" as="geometry" />
        </mxCell>
        <mxCell id="SrwTvZ2_IQ-V_5wnVjmZ-24" value="&amp;lt;&amp;lt;extend&amp;gt;&amp;gt;" style="text;html=1;align=center;verticalAlign=middle;resizable=0;points=[];autosize=1;strokeColor=none;fillColor=none;" vertex="1" parent="SrwTvZ2_IQ-V_5wnVjmZ-2">
          <mxGeometry x="44" y="414" width="82" height="26" as="geometry" />
        </mxCell>
        <mxCell id="SrwTvZ2_IQ-V_5wnVjmZ-30" value="&amp;lt;&amp;lt;include&amp;gt;&amp;gt;" style="text;html=1;align=center;verticalAlign=middle;resizable=0;points=[];autosize=1;strokeColor=none;fillColor=none;" vertex="1" parent="SrwTvZ2_IQ-V_5wnVjmZ-2">
          <mxGeometry x="277" y="473" width="84" height="26" as="geometry" />
        </mxCell>
        <mxCell id="SrwTvZ2_IQ-V_5wnVjmZ-31" value="&amp;lt;&amp;lt;include&amp;gt;&amp;gt;" style="text;html=1;align=center;verticalAlign=middle;resizable=0;points=[];autosize=1;strokeColor=none;fillColor=none;" vertex="1" parent="SrwTvZ2_IQ-V_5wnVjmZ-2">
          <mxGeometry x="277" y="313" width="84" height="26" as="geometry" />
        </mxCell>
        <mxCell id="SrwTvZ2_IQ-V_5wnVjmZ-45" value="&amp;lt;&amp;lt;extend&amp;gt;&amp;gt;" style="text;html=1;align=center;verticalAlign=middle;resizable=0;points=[];autosize=1;strokeColor=none;fillColor=none;" vertex="1" parent="SrwTvZ2_IQ-V_5wnVjmZ-2">
          <mxGeometry x="597" y="322" width="82" height="26" as="geometry" />
        </mxCell>
        <mxCell id="SrwTvZ2_IQ-V_5wnVjmZ-49" value="&amp;lt;&amp;lt;extend&amp;gt;&amp;gt;" style="text;html=1;align=center;verticalAlign=middle;resizable=0;points=[];autosize=1;strokeColor=none;fillColor=none;" vertex="1" parent="SrwTvZ2_IQ-V_5wnVjmZ-2">
          <mxGeometry x="544" y="713" width="82" height="26" as="geometry" />
        </mxCell>
        <mxCell id="1t1Mvw2Uzjou5UurBqAQ-1" value="" style="endArrow=open;endSize=12;dashed=1;html=1;rounded=0;entryX=0.5;entryY=1;entryDx=0;entryDy=0;exitX=0.5;exitY=0;exitDx=0;exitDy=0;" edge="1" parent="SrwTvZ2_IQ-V_5wnVjmZ-2" source="SrwTvZ2_IQ-V_5wnVjmZ-5" target="SrwTvZ2_IQ-V_5wnVjmZ-4">
          <mxGeometry width="160" relative="1" as="geometry">
            <mxPoint x="40" y="527" as="sourcePoint" />
            <mxPoint x="200" y="527" as="targetPoint" />
          </mxGeometry>
        </mxCell>
        <mxCell id="1t1Mvw2Uzjou5UurBqAQ-3" value="" style="endArrow=open;endSize=12;dashed=1;html=1;rounded=0;entryX=0;entryY=0;entryDx=0;entryDy=0;exitX=0.705;exitY=0.99;exitDx=0;exitDy=0;exitPerimeter=0;" edge="1" parent="SrwTvZ2_IQ-V_5wnVjmZ-2" source="SrwTvZ2_IQ-V_5wnVjmZ-4" target="SrwTvZ2_IQ-V_5wnVjmZ-19">
          <mxGeometry width="160" relative="1" as="geometry">
            <mxPoint x="180" y="372" as="sourcePoint" />
            <mxPoint x="340" y="372" as="targetPoint" />
          </mxGeometry>
        </mxCell>
        <mxCell id="1t1Mvw2Uzjou5UurBqAQ-4" value="" style="endArrow=open;endSize=12;dashed=1;html=1;rounded=0;entryX=0;entryY=0;entryDx=0;entryDy=0;exitX=1;exitY=1;exitDx=0;exitDy=0;" edge="1" parent="SrwTvZ2_IQ-V_5wnVjmZ-2" source="SrwTvZ2_IQ-V_5wnVjmZ-4" target="SrwTvZ2_IQ-V_5wnVjmZ-15">
          <mxGeometry width="160" relative="1" as="geometry">
            <mxPoint x="182" y="280" as="sourcePoint" />
            <mxPoint x="412" y="642" as="targetPoint" />
          </mxGeometry>
        </mxCell>
        <mxCell id="1t1Mvw2Uzjou5UurBqAQ-5" value="" style="endArrow=open;endSize=12;dashed=1;html=1;rounded=0;entryX=0;entryY=0.5;entryDx=0;entryDy=0;exitX=1;exitY=0.5;exitDx=0;exitDy=0;" edge="1" parent="SrwTvZ2_IQ-V_5wnVjmZ-2" source="SrwTvZ2_IQ-V_5wnVjmZ-4" target="SrwTvZ2_IQ-V_5wnVjmZ-13">
          <mxGeometry width="160" relative="1" as="geometry">
            <mxPoint x="183" y="294" as="sourcePoint" />
            <mxPoint x="428" y="438" as="targetPoint" />
          </mxGeometry>
        </mxCell>
        <mxCell id="1t1Mvw2Uzjou5UurBqAQ-6" value="" style="endArrow=open;endSize=12;dashed=1;html=1;rounded=0;entryX=0;entryY=0.5;entryDx=0;entryDy=0;exitX=0.766;exitY=0.09;exitDx=0;exitDy=0;exitPerimeter=0;" edge="1" parent="SrwTvZ2_IQ-V_5wnVjmZ-2" source="SrwTvZ2_IQ-V_5wnVjmZ-4" target="SrwTvZ2_IQ-V_5wnVjmZ-6">
          <mxGeometry width="160" relative="1" as="geometry">
            <mxPoint x="165" y="217" as="sourcePoint" />
            <mxPoint x="410" y="361" as="targetPoint" />
          </mxGeometry>
        </mxCell>
        <mxCell id="1t1Mvw2Uzjou5UurBqAQ-7" value="" style="endArrow=open;endSize=12;dashed=1;html=1;rounded=0;entryX=1;entryY=1;entryDx=0;entryDy=0;exitX=0;exitY=0.5;exitDx=0;exitDy=0;" edge="1" parent="SrwTvZ2_IQ-V_5wnVjmZ-2" source="SrwTvZ2_IQ-V_5wnVjmZ-8" target="SrwTvZ2_IQ-V_5wnVjmZ-6">
          <mxGeometry width="160" relative="1" as="geometry">
            <mxPoint x="203" y="314" as="sourcePoint" />
            <mxPoint x="448" y="458" as="targetPoint" />
          </mxGeometry>
        </mxCell>
        <mxCell id="1t1Mvw2Uzjou5UurBqAQ-8" value="" style="endArrow=open;endSize=12;dashed=1;html=1;rounded=0;entryX=1;entryY=0;entryDx=0;entryDy=0;exitX=0;exitY=0.5;exitDx=0;exitDy=0;" edge="1" parent="SrwTvZ2_IQ-V_5wnVjmZ-2" source="SrwTvZ2_IQ-V_5wnVjmZ-7" target="SrwTvZ2_IQ-V_5wnVjmZ-6">
          <mxGeometry width="160" relative="1" as="geometry">
            <mxPoint x="689" y="162" as="sourcePoint" />
            <mxPoint x="528" y="131" as="targetPoint" />
          </mxGeometry>
        </mxCell>
        <mxCell id="1t1Mvw2Uzjou5UurBqAQ-10" value="" style="endArrow=open;endSize=12;dashed=1;html=1;rounded=0;entryX=0.971;entryY=0.305;entryDx=0;entryDy=0;exitX=0;exitY=0;exitDx=0;exitDy=0;entryPerimeter=0;" edge="1" parent="SrwTvZ2_IQ-V_5wnVjmZ-2" source="SrwTvZ2_IQ-V_5wnVjmZ-11" target="SrwTvZ2_IQ-V_5wnVjmZ-13">
          <mxGeometry width="160" relative="1" as="geometry">
            <mxPoint x="702" y="313" as="sourcePoint" />
            <mxPoint x="541" y="282" as="targetPoint" />
          </mxGeometry>
        </mxCell>
        <mxCell id="1t1Mvw2Uzjou5UurBqAQ-11" value="" style="endArrow=open;endSize=12;dashed=1;html=1;rounded=0;entryX=1;entryY=1;entryDx=0;entryDy=0;exitX=0.053;exitY=0.359;exitDx=0;exitDy=0;exitPerimeter=0;" edge="1" parent="SrwTvZ2_IQ-V_5wnVjmZ-2" source="SrwTvZ2_IQ-V_5wnVjmZ-14" target="SrwTvZ2_IQ-V_5wnVjmZ-13">
          <mxGeometry width="160" relative="1" as="geometry">
            <mxPoint x="679" y="359" as="sourcePoint" />
            <mxPoint x="518" y="328" as="targetPoint" />
          </mxGeometry>
        </mxCell>
        <mxCell id="1t1Mvw2Uzjou5UurBqAQ-12" value="" style="endArrow=open;endSize=12;dashed=1;html=1;rounded=0;entryX=1;entryY=0.5;entryDx=0;entryDy=0;exitX=0;exitY=0.5;exitDx=0;exitDy=0;" edge="1" parent="SrwTvZ2_IQ-V_5wnVjmZ-2" source="SrwTvZ2_IQ-V_5wnVjmZ-16" target="SrwTvZ2_IQ-V_5wnVjmZ-15">
          <mxGeometry width="160" relative="1" as="geometry">
            <mxPoint x="671" y="496" as="sourcePoint" />
            <mxPoint x="510" y="465" as="targetPoint" />
          </mxGeometry>
        </mxCell>
        <mxCell id="1t1Mvw2Uzjou5UurBqAQ-13" value="" style="endArrow=open;endSize=12;dashed=1;html=1;rounded=0;entryX=1;entryY=0;entryDx=0;entryDy=0;exitX=0;exitY=0.5;exitDx=0;exitDy=0;" edge="1" parent="SrwTvZ2_IQ-V_5wnVjmZ-2" source="SrwTvZ2_IQ-V_5wnVjmZ-20" target="SrwTvZ2_IQ-V_5wnVjmZ-19">
          <mxGeometry width="160" relative="1" as="geometry">
            <mxPoint x="629" y="688.5" as="sourcePoint" />
            <mxPoint x="468" y="657.5" as="targetPoint" />
          </mxGeometry>
        </mxCell>
        <mxCell id="1t1Mvw2Uzjou5UurBqAQ-15" value="" style="endArrow=open;endSize=12;dashed=1;html=1;rounded=0;exitX=0;exitY=0.5;exitDx=0;exitDy=0;entryX=1;entryY=0.5;entryDx=0;entryDy=0;" edge="1" parent="SrwTvZ2_IQ-V_5wnVjmZ-2" source="SrwTvZ2_IQ-V_5wnVjmZ-22" target="SrwTvZ2_IQ-V_5wnVjmZ-19">
          <mxGeometry width="160" relative="1" as="geometry">
            <mxPoint x="640" y="713" as="sourcePoint" />
            <mxPoint x="484" y="682" as="targetPoint" />
          </mxGeometry>
        </mxCell>
        <mxCell id="1t1Mvw2Uzjou5UurBqAQ-16" value="" style="endArrow=open;endSize=12;dashed=1;html=1;rounded=0;entryX=1;entryY=1;entryDx=0;entryDy=0;exitX=0;exitY=0.5;exitDx=0;exitDy=0;" edge="1" parent="SrwTvZ2_IQ-V_5wnVjmZ-2" source="SrwTvZ2_IQ-V_5wnVjmZ-21" target="SrwTvZ2_IQ-V_5wnVjmZ-19">
          <mxGeometry width="160" relative="1" as="geometry">
            <mxPoint x="628" y="747" as="sourcePoint" />
            <mxPoint x="467" y="716" as="targetPoint" />
          </mxGeometry>
        </mxCell>
        <mxCell id="SrwTvZ2_IQ-V_5wnVjmZ-32" value="&amp;lt;&amp;lt;include&amp;gt;&amp;gt;" style="text;html=1;align=center;verticalAlign=middle;resizable=0;points=[];autosize=1;strokeColor=none;fillColor=none;" vertex="1" parent="1">
          <mxGeometry x="-59" y="82" width="84" height="26" as="geometry" />
        </mxCell>
        <mxCell id="SrwTvZ2_IQ-V_5wnVjmZ-33" value="&amp;lt;&amp;lt;include&amp;gt;&amp;gt;" style="text;html=1;align=center;verticalAlign=middle;resizable=0;points=[];autosize=1;strokeColor=none;fillColor=none;" vertex="1" parent="1">
          <mxGeometry x="-96" y="-10" width="84" height="26" as="geometry" />
        </mxCell>
        <mxCell id="SrwTvZ2_IQ-V_5wnVjmZ-42" value="&amp;lt;&amp;lt;extend&amp;gt;&amp;gt;" style="text;html=1;align=center;verticalAlign=middle;resizable=0;points=[];autosize=1;strokeColor=none;fillColor=none;" vertex="1" parent="1">
          <mxGeometry x="224" y="-79" width="82" height="26" as="geometry" />
        </mxCell>
        <mxCell id="SrwTvZ2_IQ-V_5wnVjmZ-43" value="&amp;lt;&amp;lt;extend&amp;gt;&amp;gt;" style="text;html=1;align=center;verticalAlign=middle;resizable=0;points=[];autosize=1;strokeColor=none;fillColor=none;" vertex="1" parent="1">
          <mxGeometry x="242" y="-5" width="82" height="26" as="geometry" />
        </mxCell>
        <mxCell id="SrwTvZ2_IQ-V_5wnVjmZ-44" value="&amp;lt;&amp;lt;extend&amp;gt;&amp;gt;" style="text;html=1;align=center;verticalAlign=middle;resizable=0;points=[];autosize=1;strokeColor=none;fillColor=none;" vertex="1" parent="1">
          <mxGeometry x="252" y="90" width="82" height="26" as="geometry" />
        </mxCell>
        <mxCell id="SrwTvZ2_IQ-V_5wnVjmZ-46" value="&amp;lt;&amp;lt;extend&amp;gt;&amp;gt;" style="text;html=1;align=center;verticalAlign=middle;resizable=0;points=[];autosize=1;strokeColor=none;fillColor=none;" vertex="1" parent="1">
          <mxGeometry x="236" y="281" width="82" height="26" as="geometry" />
        </mxCell>
        <mxCell id="SrwTvZ2_IQ-V_5wnVjmZ-47" value="&amp;lt;&amp;lt;extend&amp;gt;&amp;gt;" style="text;html=1;align=center;verticalAlign=middle;resizable=0;points=[];autosize=1;strokeColor=none;fillColor=none;" vertex="1" parent="1">
          <mxGeometry x="212" y="427" width="82" height="26" as="geometry" />
        </mxCell>
        <mxCell id="SrwTvZ2_IQ-V_5wnVjmZ-48" value="&amp;lt;&amp;lt;extend&amp;gt;&amp;gt;" style="text;html=1;align=center;verticalAlign=middle;resizable=0;points=[];autosize=1;strokeColor=none;fillColor=none;" vertex="1" parent="1">
          <mxGeometry x="224" y="500" width="82" height="26" as="geometry" />
        </mxCell>
        <mxCell id="SrwTvZ2_IQ-V_5wnVjmZ-50" value="" style="endArrow=none;html=1;rounded=0;entryX=0;entryY=0.5;entryDx=0;entryDy=0;" edge="1" parent="1" target="SrwTvZ2_IQ-V_5wnVjmZ-4">
          <mxGeometry width="50" height="50" relative="1" as="geometry">
            <mxPoint x="-478" y="97" as="sourcePoint" />
            <mxPoint x="-411" y="78" as="targetPoint" />
          </mxGeometry>
        </mxCell>
      </root>
    </mxGraphModel>
  </diagram>
</mxfile>
